ModelForces
version=1
nRows=60
nColumns=3
inDegrees=no

This file contains the forces exerted on a model during a simulation.

A force is a generalized force, meaning that it can be either a force (N) or a torque (Nm).

Units are S.I. units (second, meters, Newtons, ...)
Angles are in degrees.

endheader
time	Liu	Thelen
      0.00000000	      6.68640903	      5.71316995
      0.01000000	      6.31917992	      7.92439564
      0.02258926	      8.00087284	     11.74171544
      0.03517852	     12.61421963	     17.52034025
      0.05580211	     25.45500834	     27.34070437
      0.07028272	     32.27805330	     33.48497147
      0.08476333	     41.44765460	     40.50837387
      0.10645550	     54.63541174	     51.81316978
      0.12530982	     64.26716887	     61.90664321
      0.14416415	     75.93032226	     72.96484547
      0.16301848	     84.41987215	     83.33231777
      0.18187280	     97.07359588	     94.78343211
      0.19760348	    103.27981012	    103.03978290
      0.21333416	    112.98465877	    112.12095662
      0.23273730	    122.34866436	    122.47710161
      0.25214044	    135.54114029	    133.90185246
      0.26675511	    140.71998726	    141.02210468
      0.28136977	    149.58920175	    149.27149692
      0.30109426	    159.13966700	    159.53449553
      0.31843573	    170.20804028	    169.48182406
      0.33577720	    176.95664433	    177.70621731
      0.35311866	    189.84500498	    188.48387558
      0.36701468	    193.96701190	    194.52961973
      0.38091069	    202.45659049	    202.39404299
      0.39982132	    210.93865152	    211.70306551
      0.41602515	    222.05861771	    221.32843460
      0.43222898	    227.64915291	    228.33396495
      0.44843281	    239.46504400	    238.56233627
      0.46243797	    243.76128314	    244.24128037
      0.47644312	    252.42140551	    252.38914445
      0.49457168	    259.81265770	    260.34308375
      0.50929781	    270.39004555	    269.86275336
      0.52402394	    275.38743023	    275.64228620
      0.53875007	    285.09897823	    284.79470770
      0.55347620	    290.53610321	    290.67324385
      0.56820233	    300.17442883	    299.84535407
      0.58292846	    305.54047676	    305.44470820
      0.59765459	    315.35511862	    314.94184116
      0.61238072	    320.35745915	    320.30718414
      0.62710685	    330.52152000	    330.00122328
      0.64183298	    335.22536853	    335.38780416
      0.65931332	    349.24035922	    347.37325700
      0.67254638	    351.00407525	    351.44103137
      0.68577944	    357.93931720	    358.28642774
      0.72109293	    370.98718887	    366.73011793
      0.73443105	    383.66065051	    383.91888586
      0.74776918	    388.33393790	    389.06522195
      0.76508659	    397.44113937	    397.32218922
      0.79284456	    410.00490747	    411.40696228
      0.81200336	    421.03522504	    420.32637599
      0.83116215	    429.23457988	    429.90230991
      0.85745394	    445.40576966	    443.17783810
      0.87316970	    449.61574194	    450.36474458
      0.88888545	    457.69831331	    457.95365299
      0.91131475	    468.73067808	    468.59312949
      0.93374405	    479.21092106	    479.83081499
      0.95328358	    489.07016791	    488.46413980
      0.97282310	    497.72422837	    498.64870700
      0.99236263	    507.79004908	    507.04806381
      1.00000000	    511.05338134	    511.13510841
